<svg id="Layer_4" data-name="Layer 4" xmlns="http://www.w3.org/2000/svg" viewBox="0 0 842.38 324.03"><defs><style>.cls-1{fill:none;}.cls-2{fill:#231f20;}.cls-3{fill:#488cca;}.cls-4{fill:#fff;stroke:#fff;stroke-miterlimit:10;stroke-width:0.28px;}.cls-5{fill:#4a8cca;}</style></defs><path class="cls-1" d="M317.62,26.9c-5.17,0-9,1.91-11.62,5.82s-4,9.86-4.05,17.6V64.25C302,72,303.3,78,306,82.06s6.49,6,11.76,6,9.11-1.85,11.59-5.5,3.87-9.55,4-17.33V50.64c0-8.06-1.32-14.12-3.9-18S323,26.9,317.62,26.9Z"/><path class="cls-1" d="M558.4,82.53c2.54-3.72,3.87-9.56,4-17.33V50.64c0-8.06-1.31-14.12-3.9-18s-6.42-5.74-11.77-5.74c-5.17,0-9,1.91-11.62,5.82s-4,9.86-4.05,17.6V64.25c0,7.78,1.35,13.77,4,17.81s6.49,6,11.76,6S555.92,86.18,558.4,82.53Z"/><path d="M337.07,26.41C332.44,20.8,325.89,18,317.62,18s-14.89,3-19.55,8.82-7,13.94-7,24.14V65.17c.18,10,2.64,17.86,7.32,23.36s11.2,8.34,19.29,8.34c8.42,0,15-2.89,19.6-8.58s6.85-13.81,6.85-24.22V50.29C344.07,40,341.68,32,337.07,26.41ZM333.29,65c-.11,7.58-1.44,13.25-4,16.88s-6.38,5.36-11.59,5.36-9.12-1.9-11.76-5.82-4-9.77-4-17.34V50.5c0-7.53,1.4-13.29,4.05-17.13s6.45-5.66,11.62-5.66c5.34,0,9.19,1.82,11.77,5.58s3.9,9.68,3.9,17.53Z"/><path d="M371.58,17.93H358.8a.75.75,0,0,0-.75.75V95.57a1.28,1.28,0,0,0,1.27,1.28h8.34a1.29,1.29,0,0,0,1.28-1.28V66l-.78-26.05L386.8,96a1.37,1.37,0,0,0,1.21.87h6.44a1.37,1.37,0,0,0,1.2-.87L414.4,39.7,413.62,66V95.57a1.29,1.29,0,0,0,1.28,1.28h8.34a1.28,1.28,0,0,0,1.27-1.28V19.2a1.27,1.27,0,0,0-1.27-1.27H411.91a1.36,1.36,0,0,0-1.21.88L391.28,80"/><polygon points="492.87 18.01 473.17 80.05 453.61 18.43 453.47 18.01 439.94 18.01 439.94 96.93 450.83 96.93 450.83 66.06 450.05 40.01 468.98 96.93 477.25 96.93 496.3 39.79 495.51 66.06 495.51 96.93 506.4 96.93 506.4 18.01 492.87 18.01"/><path d="M566.17,26.41C561.53,20.8,555,18,546.71,18s-14.89,3-19.54,8.82-7,13.94-7,24.14V65.17c.17,10,2.63,17.86,7.31,23.36s11.2,8.34,19.29,8.34c8.42,0,15-2.89,19.6-8.58s6.86-13.81,6.86-24.22V50.29C573.16,40,570.77,32,566.17,26.41Zm-19.46,1.3c5.35,0,9.2,1.82,11.77,5.58s3.9,9.68,3.9,17.53V65c-.11,7.57-1.44,13.25-4,16.88s-6.38,5.36-11.59,5.36-9.12-1.9-11.76-5.82-4-9.77-4-17.34V50.5c0-7.53,1.4-13.29,4.05-17.13S541.54,27.71,546.71,27.71Z"/><polygon points="627.81 17.96 627.81 76.25 597.94 18.28 597.77 17.96 587.07 17.96 587.07 96.88 598.01 96.88 598.01 38.85 627.94 96.88 638.65 96.88 638.65 17.96 627.81 17.96"/><path class="cls-1" d="M431,131.13H419.35v29.54h11.78a12.57,12.57,0,0,0,9.73-4q3.63-4,3.63-10.6Q444.49,131.13,431,131.13Z"/><polygon class="cls-1" points="479.71 171.78 500.76 171.78 490.21 136.41 479.71 171.78"/><path class="cls-1" d="M618.79,136.58q-4.11,6.09-4.16,17.95v13.94q0,11.92,4.11,18.17T631,192.89q8.16,0,12.09-5.77t4.09-17.69V154.85q0-12.34-4-18.36t-12.28-6Q622.9,130.48,618.79,136.58Z"/><path class="cls-1" d="M320.12,131.13H305.17v30.56h14.9q6.46,0,9.92-3.91c2.29-2.61,3.44-6.33,3.44-11.19q0-7-3.55-11.24A12.09,12.09,0,0,0,320.12,131.13Z"/><polygon class="cls-1" points="751.62 171.78 772.68 171.78 762.13 136.41 751.62 171.78"/><path class="cls-2" d="M337.42,128.81c-4.2-4.43-10-6.68-17.35-6.68H294.86v79h10.9V170.68h15c7.23-.15,12.93-2.32,16.94-6.46s6-10.1,6-17.71C343.74,139.19,341.61,133.24,337.42,128.81Zm-4.58,17.78c0,4.68-1.11,8.31-3.3,10.79s-5.36,3.7-9.47,3.7H305.76V131.73h14.36a11.54,11.54,0,0,1,9.31,4C331.69,138.44,332.84,142.09,332.84,146.59Z"/><polygon class="cls-2" points="365.96 191.54 365.96 165.18 393.27 165.18 393.27 155.58 365.96 155.58 365.96 131.73 397.25 131.73 397.25 122.13 355.06 122.13 355.06 201.13 397.78 201.13 397.78 191.54 365.96 191.54"/><path class="cls-2" d="M442.94,167.1a20.61,20.61,0,0,0,8.67-8.07h0a25.1,25.1,0,0,0,3.24-12.89c0-7.79-2-13.8-6-17.87s-9.91-6.14-17.61-6.14H409v79H420V169.66h12.59l13.74,31.47h11.43v-1.38Zm-23-35.37H431c8.66,0,12.87,4.7,12.87,14.38,0,4.25-1.16,7.68-3.47,10.19a12,12,0,0,1-9.29,3.77H420Z"/><path class="cls-2" d="M495,122.55l-.14-.42h-9.19l-25.26,79h11.23l6-20.35h25.2l6.1,20.35h11.24Zm5,48.63H480.51l9.7-32.67Z"/><polygon class="cls-2" points="517.24 122.13 517.24 131.73 537.5 131.73 537.5 201.13 548.4 201.13 548.4 131.73 568.72 131.73 568.72 122.13 517.24 122.13"/><rect class="cls-2" x="579.35" y="122.13" width="10.9" height="79"/><path class="cls-2" d="M650.39,130.6c-4.64-5.62-11.2-8.47-19.48-8.47s-14.9,3-19.56,8.84-7,13.95-7,24.16v14.26c.18,10,2.64,17.88,7.33,23.39s11.2,8.35,19.31,8.35c8.43,0,15-2.89,19.61-8.6s6.87-13.82,6.87-24.24V154.5C657.39,144.22,655,136.17,650.39,130.6Zm-3.79,38.62c-.1,7.58-1.44,13.26-4,16.89s-6.39,5.37-11.6,5.37-9.14-1.91-11.78-5.83-4-9.78-4-17.36V154.72c0-7.55,1.4-13.32,4.06-17.15s6.45-5.68,11.62-5.68c5.36,0,9.21,1.83,11.79,5.6h0c2.59,3.79,3.9,9.69,3.9,17.55Z"/><polygon class="cls-2" points="712.1 122.13 712.1 180.49 682.03 122.13 671.31 122.13 671.31 201.13 682.27 201.13 682.27 143.04 712.23 201.13 722.95 201.13 722.95 122.13 712.1 122.13"/><path class="cls-2" d="M766.88,122.55l-.13-.42h-9.2l-25.26,79h11.24l6-20.35h25.21l6.1,20.35h11.23Zm5,48.63H752.43l9.7-32.67Z"/><polygon class="cls-2" points="812.1 191.54 812.1 122.13 801.14 122.13 801.14 201.13 842.38 201.13 842.38 191.54 812.1 191.54"/><polygon class="cls-1" points="302.34 276.84 322.33 276.84 312.31 243.26 302.34 276.84"/><polygon class="cls-1" points="404.95 276.84 424.94 276.84 414.92 243.26 404.95 276.84"/><path class="cls-2" d="M316.82,230.1l-.12-.4H308l-24,75h10.66l5.69-19.33h23.93l5.79,19.33h10.67Zm4.74,46.16H303.1l9.21-31Z"/><polygon class="cls-2" points="337.97 229.7 337.97 238.81 357.21 238.81 357.21 304.7 367.56 304.7 367.56 238.81 386.84 238.81 386.84 229.7 337.97 229.7"/><path class="cls-2" d="M419.44,230.1l-.13-.4h-8.73l-24,75h10.67L403,285.37h23.93l5.79,19.33h10.66Zm4.74,46.16H405.72l9.2-31Z"/><path class="cls-2" d="M473.91,262.27c-4.53-1.58-7.92-3.39-10.06-5.37a9.32,9.32,0,0,1-3.15-7.21c0-3.53,1-6.29,2.91-8.22s4.71-2.9,8.26-2.9c3.9,0,6.93,1.17,9,3.47s3.13,5.67,3.13,10v.56h10.4V252a23.52,23.52,0,0,0-2.79-11.32,20.12,20.12,0,0,0-8-8.08,23.78,23.78,0,0,0-11.76-2.89c-6.4,0-11.66,1.91-15.63,5.69a19.21,19.21,0,0,0-6,14.47,19,19,0,0,0,2.11,9,21,21,0,0,0,6.31,7,48,48,0,0,0,12,5.78c5.07,1.77,8.61,3.61,10.52,5.45s2.8,4.43,2.8,7.85a10.77,10.77,0,0,1-2.91,7.95c-1.93,1.92-4.87,2.9-8.76,2.9-4.19,0-7.54-1.19-9.95-3.54s-3.63-5.71-3.63-10v-.56h-10.4v.56a21.27,21.27,0,0,0,11.92,19.59,26.42,26.42,0,0,0,12.06,2.8c6.76,0,12.2-1.82,16.15-5.41s6-8.45,6-14.41c0-5.65-1.62-10.29-4.8-13.81S481.19,264.63,473.91,262.27Z"/><polygon class="cls-2" points="515.74 270.56 541.67 270.56 541.67 261.45 515.74 261.45 515.74 238.81 545.45 238.81 545.45 229.7 505.39 229.7 505.39 304.7 545.95 304.7 545.95 295.59 515.74 295.59 515.74 270.56"/><polygon class="cls-2" points="552.72 229.7 552.72 238.81 571.95 238.81 571.95 304.7 582.3 304.7 582.3 238.81 601.59 238.81 601.59 229.7 552.72 229.7"/><path class="cls-2" d="M648.14,271.07c-3.16-3.48-8.45-6.44-15.72-8.8-4.54-1.58-7.92-3.39-10.07-5.37a9.34,9.34,0,0,1-3.14-7.21c0-3.53,1-6.29,2.91-8.22s4.7-2.9,8.25-2.9c3.91,0,6.93,1.17,9,3.47s3.13,5.67,3.13,10v.56h10.4V252a23.51,23.51,0,0,0-2.78-11.32,20.14,20.14,0,0,0-8-8.08,23.75,23.75,0,0,0-11.76-2.89c-6.4,0-11.65,1.91-15.62,5.69a20.47,20.47,0,0,0-3.89,23.5,21.1,21.1,0,0,0,6.31,7,47.9,47.9,0,0,0,12,5.78c5.06,1.77,8.6,3.61,10.51,5.45s2.8,4.43,2.8,7.85a10.76,10.76,0,0,1-2.9,7.95c-1.93,1.92-4.88,2.9-8.76,2.9-4.19,0-7.54-1.19-10-3.54s-3.64-5.71-3.64-10v-.56H606.85v.56a21.28,21.28,0,0,0,11.91,19.59,26.43,26.43,0,0,0,12.07,2.8c6.76,0,12.19-1.82,16.14-5.41s6-8.45,6-14.41C652.94,279.23,651.33,274.59,648.14,271.07Z"/><path class="cls-3" d="M266.1,69.87,266,71.13c-.49,6.08-1.75,10.3-3.73,12.54s-5.19,3.25-9.74,3.25a11.25,11.25,0,0,1-10.21-5.53c-2.45-3.87-3.69-9.59-3.69-17v-14c0-7.52,1.33-13.27,3.95-17.08a12.24,12.24,0,0,1,10.83-5.49c4.11,0,7,1.13,9,3.47S265.6,38,266,43.83l.09,1.29h12.4l-.06-1.44c-.36-8.49-2.69-15.14-6.92-19.76s-10.37-7-18.1-7c-8.38,0-15.1,3.07-20,9.14s-7.23,14.17-7.23,24.35V64.19c0,10.2,2.37,18.43,7,24.45s11.25,9.25,19.3,9.25,14.22-2.34,18.64-6.94,6.83-11.17,7.26-19.63l.08-1.45Z"/><path class="cls-3" d="M272.21,235.74c-5.4-6-13.06-9-22.75-9H229v81h19.28c10.3,0,18.3-3,23.78-8.92s8.2-14.27,8.2-24.92v-13.1C280.29,250.11,277.57,241.69,272.21,235.74Zm-23.68,60.7h-6.6V238h7.53c6.14,0,10.56,1.72,13.53,5.26s4.51,9.37,4.51,17.24v13.85c-.07,7.41-1.64,13-4.66,16.72S255.08,296.44,248.53,296.44Z"/><path class="cls-3" d="M280.29,155.06c-.11-10.53-2.61-18.78-7.44-24.52s-11.8-8.8-20.51-8.8-15.69,3.09-20.61,9.18-7.28,14.33-7.28,24.78v14.36c.18,10.25,2.76,18.32,7.67,24s11.8,8.68,20.33,8.68h0c8.87,0,15.82-3,20.66-9s7.18-14.2,7.18-24.86Zm-12.74,14.8c-.11,7.46-1.42,13-3.92,16.56s-6.07,5.05-11.18,5.05-8.81-1.8-11.35-5.51-4-9.56-4-17V155.29c0-7.43,1.38-13.09,4-16.82s6.2-5.36,11.2-5.36c5.18,0,8.89,1.72,11.36,5.28s3.85,9.46,3.85,17.2Z"/><polygon class="cls-4" points="203.03 201.05 138.02 164.53 6.12 240.09 138.02 317.82 203.03 280.26 203.03 201.05"/><path class="cls-5" d="M206,195.72l-65-36.53a6.17,6.17,0,0,0-6,0L3.08,234.79A6.11,6.11,0,0,0,3,245.36L134.9,323.08a6.14,6.14,0,0,0,6.18,0l65-37.56a6.11,6.11,0,0,0,3.06-5.3v-79.2A6.08,6.08,0,0,0,206,195.72Zm-9.1,8.9v72.11l-58.87,34L18.29,240.17l119.76-68.61Z"/><polygon class="cls-4" points="203.03 122.83 138.02 86.31 6.12 161.88 138.02 239.6 203.03 202.05 203.03 122.83"/><path class="cls-5" d="M206,116.64,141,80.12a6.17,6.17,0,0,0-6,0L3.07,155.72A6.12,6.12,0,0,0,3,166.3L134.92,244a6.08,6.08,0,0,0,3.1.85,6,6,0,0,0,3.06-.82l65-37.56a6.16,6.16,0,0,0,3.05-5.29V122A6.14,6.14,0,0,0,206,116.64Zm-9.1,8.91v72.1l-58.88,34L18.29,161.09,138.05,92.48Z"/><polygon class="cls-4" points="199.46 42.62 134.45 6.09 2.55 81.67 134.45 159.39 199.46 121.82 199.46 42.62"/><path class="cls-5" d="M206,37.3,141,.76a6.17,6.17,0,0,0-6,.05L3.07,76.38A6.11,6.11,0,0,0,3,87L134.9,164.66a6,6,0,0,0,3.12.85,6.11,6.11,0,0,0,3.06-.81l65-37.56a6.14,6.14,0,0,0,3-5.3V42.63A6.1,6.1,0,0,0,206,37.3Zm-9.1,8.91v72.1l-58.87,34L18.29,81.75,138.05,13.14Z"/><path class="cls-5" d="M203,.18a6.12,6.12,0,0,0-6.11,6.11V317.91a6.11,6.11,0,1,0,12.22,0V6.29A6.12,6.12,0,0,0,203,.18Z"/></svg>